/* XPM */
static char *_066b9e34eb54b75e5c102d4beedb431Fewb9xMWI6Q38J13[] = {
/* columns rows colors chars-per-pixel */
"32 32 196 2 ",
"   c #10132D",
".  c #0B0E32",
"X  c #0A1739",
"o  c #0B193E",
"O  c #141834",
"+  c #0C1A44",
"@  c #0D1545",
"#  c #1A1F46",
"$  c #141949",
"%  c #1A1E4D",
"&  c #171B46",
"*  c #1B1F51",
"=  c #132349",
"-  c #1C214E",
";  c #1D2A4C",
":  c #0C2859",
">  c #1D2252",
",  c #142855",
"<  c #192B57",
"1  c #1E235A",
"2  c #122F5C",
"3  c #172553",
"4  c #212651",
"5  c #222855",
"6  c #252B5B",
"7  c #282D5D",
"8  c #282C55",
"9  c #2A315E",
"0  c #22335A",
"q  c #183769",
"w  c #163C6B",
"e  c #183D6D",
"r  c #163E72",
"t  c #193E73",
"y  c #262C62",
"u  c #282E62",
"i  c #2C3265",
"p  c #2E336A",
"a  c #263A6C",
"s  c #30376C",
"d  c #353B6C",
"f  c #373B69",
"g  c #2F3670",
"h  c #283E73",
"j  c #313770",
"k  c #353B73",
"l  c #393E75",
"z  c #363D7A",
"x  c #383F7A",
"c  c #1C4476",
"v  c #16457A",
"b  c #1A4178",
"n  c #17497D",
"m  c #1D4A7B",
"M  c #2C436F",
"N  c #37416D",
"B  c #3B426E",
"V  c #274374",
"C  c #2B4574",
"Z  c #244C7C",
"A  c #2B4A7B",
"S  c #3C4373",
"D  c #324876",
"F  c #364679",
"G  c #3B427B",
"H  c #334B7C",
"J  c #394B7C",
"K  c #374474",
"L  c #37507E",
"P  c #414577",
"I  c #424C75",
"U  c #42467B",
"Y  c #444C7B",
"T  c #4B4D7E",
"R  c #46527B",
"E  c #4A567D",
"W  c #3A3F81",
"Q  c #1A4E83",
"!  c #1E548B",
"~  c #1E588F",
"^  c #1F5B93",
"/  c #274E80",
"(  c #3D4483",
")  c #3C4E82",
"_  c #374D88",
"`  c #354C85",
"'  c #245386",
"]  c #2F5283",
"[  c #2D5985",
"{  c #235789",
"}  c #285589",
"|  c #24598D",
" . c #2C5A8A",
".. c #355284",
"X. c #395485",
"o. c #39518F",
"O. c #325689",
"+. c #225C93",
"@. c #2C5D91",
"#. c #215D98",
"$. c #2B6294",
"%. c #25649C",
"&. c #2A669D",
"*. c #2E6A9E",
"=. c #3C6192",
"-. c #326A9C",
";. c #2666A2",
":. c #2B6CA4",
">. c #2C6FAC",
",. c #3067A0",
"<. c #326FA5",
"1. c #2D73AC",
"2. c #3472A7",
"3. c #3275AC",
"4. c #3779AF",
"5. c #2F77B0",
"6. c #2F78B0",
"7. c #3076B0",
"8. c #337BB4",
"9. c #397DB2",
"0. c #357FB8",
"q. c #404685",
"w. c #434A85",
"e. c #4B4E85",
"r. c #414788",
"t. c #444C8B",
"y. c #494C8B",
"u. c #4B5484",
"i. c #4D5982",
"p. c #4C538B",
"a. c #4E598B",
"s. c #475386",
"d. c #52558D",
"f. c #525C8B",
"g. c #474D91",
"h. c #484F92",
"j. c #495193",
"k. c #4D5A92",
"l. c #4E549C",
"z. c #545791",
"x. c #555993",
"c. c #5A5C95",
"v. c #51569F",
"b. c #5B5E9A",
"n. c #54599E",
"m. c #54618D",
"M. c #426396",
"N. c #566291",
"B. c #5A6495",
"V. c #5D629C",
"C. c #5D6A9B",
"Z. c #61649C",
"A. c #616C9F",
"S. c #5157A0",
"D. c #555AA5",
"F. c #585BA6",
"G. c #565CA9",
"H. c #585EAB",
"J. c #5E62A0",
"K. c #5D62B4",
"L. c #6366A3",
"P. c #6569A7",
"I. c #656AA4",
"U. c #696CA5",
"Y. c #6467AE",
"T. c #6669A8",
"R. c #6669A9",
"E. c #6C6FAD",
"W. c #6A6DAC",
"Q. c #6572A4",
"!. c #6B72AD",
"~. c #6D7AAF",
"^. c #6165B6",
"/. c #676BBF",
"(. c #6669B7",
"). c #6E72B2",
"_. c #6E7CB6",
"`. c #7174B5",
"'. c #707EB5",
"]. c #7477B9",
"[. c #797BB9",
"{. c #696DC4",
"}. c #6F73C9",
"|. c #3D81B3",
" X c #3680BA",
".X c #3680B9",
"XX c #3681BA",
"oX c #3882BB",
"OX c #3985BE",
"+X c #3984BD",
"@X c #4086BA",
"#X c #4284B3",
"$X c #7482BB",
"%X c #3A86C0",
"&X c #3C89C1",
"*X c #4690C2",
/* pixels */
"4.4.@.f.C.f.E f.N.S f.R.W.U l w.w.t.p.r.Y B.N.N.N.a.f.J <.3.*.:.",
"OXOX-.f.Z.N.N.C.B.N Y b.b.d i G S x G x I C.J.A.C.C.i.V 9.+X.X.X",
".XoX$.Y C.N.i.i.Y d e.x.y.a Z Z Z Z / / O.=.J f.C.A.B.V 3.1.7.8.",
"..M.J p.b.F.b.x.x.p.Z.E.L.O.8.1.1.5. X X0.oX-.N.I.Y q.G ` _ o.A ",
"u.Q.f.(.}./.^.F.G.j.y.W.V.] 5.5.1.5.%X%X X X<.R.`.d x t.t.r.G i ",
"u.A.i.Y.{.^.g.( r.p l P.V.] 5.1.1.1.5.0.0.8.,.J.R.8 j r.q.k y.S.",
"Y I.f.n.G.S.j.j.j.u S R.b.V %.+.! Q ! ^ ;.;.@.L.R.8 y z ( l.D.l.",
"R A.u.r.( r.r.t.( > k Z.x.i J G F F F J ) J F b.L.4 y g.l.l.l.g.",
"f.c.B Y i 9 9 u 6 3 N f.u.Y U.T.W.E.E.E.U.c.T E d % l G e.x.x.d.",
"T.L.u.$X$X$X_._.~._.$X$X$Xa.L.T.W.E.L.W.E.[.Z.V.x.z.L.e.L.`.E.`.",
"x.s.9 f.$X~.Q.~.C.C.C.C.m.B e.Y U k d z P T U w.k.k.p.S s.k.k.p.",
"9.4.| < d a.m.m.m.m.m.m.i.S c.f.x.a.a.i.u.p.f.M 3.9.9.@X|.9.8.3.",
"1.1.1.^ 3 f S Y R R u.i.B B m.m.m.m.m.a.f.m.m.0 +.0.1.3.1.1.1.1.",
">.:.:.%.a f.f U S U U U S N m.m.m.m.m.m.m.m.f.; Q 7.1.1.%.&.>.:.",
"1.1.5.:.a L.d.J.V.J.L.V.V.B i.E E R I I R i.E ; v 5.8.9.1.5.9.8.",
"0.8.0.;.a U % % % > > > - & - O   X o o + = = X Q 5.8.8.8. X.X8.",
";.;.#.r + $ 1 p F G ( G G G G j ; w v v n n v 2 ~ :.;.;.;.>.3.>.",
"b t : @ y G t.j.j.t.t.w.t.) G j 6 m ~ ! m ' ' 2 r t b t t t t b ",
"W.p.$ j g.g.r.r.j.t.t.q.k p p ( p m | [ [ 3.1.C I.E.U.I.Z.L.U.L.",
"`.V.1 j.j.g.r.h.j.j.t.s s x G x y m $.*X#X-.1.H E.).).].].].].`.",
"W.x.* r.h.j.j.g.r.j.S i j s s s < Z |..XOX|.-.H R.W.W.).T.E.`.T.",
"P.d.> t.j.l.j.j.t.G ( p p s s s 5  .6.1.1..X|.L T.W.).).T.P.).].",
").z.> h.l.j.j.h.x ( z g i p s s 5 $.1.1.1.1.1...T.T.).].].).`.`.",
").d.% h.j.j.r.z g j g p i s s s 4 L =.M.=.M.=.N b.L.b.J.Y.E.].`.",
"G i $ G G k 6 6 u 7 u 5 5 5 6 7 4 e.c.c.z.d.z.l 8 g p i p j W U ",
"-.$.V d.V.B.d d.b.x.c.b.b.f u.c.b.L.c.z.P y.v.l.l.D.F.F.D.F.F.l.",
"3.*.} V.R.R.d.P J.J.b.c.c.f K o.....H V k ^.K.K.K.^.K.G.G.D.F.l.",
":.&.' b.R.L.Z.f K S S P P u $.5.8.4.8.3.h h.v.D.D.S.v.S.S.v.S.g.",
"3.:.' b.R.R.T.l | ' u.Z.V.w.*.oX0.9. X8., ( l.l.h.t.t.S.S.l.l.r.",
"1.1.V T y.e.e.i Q Z c.!.!.z.2.OX+X+X0.5.3 ( l.j.g.g.h.g.g.g.r.z ",
"1.3.b B R Y Y I Y B V.`.!.d.Z m c c w w o k g.y.t.g.g.t.r.g.t.( ",
"| | q i.C.N.m.m.f.I x.T.T.U i 1 > > > - . * 6 7 y u 6 y p s y u "
};
