/* XPM */
static char *_f15313cef194b00ce8011f56057fe92V3WKDcslvlNyvqSx[] = {
/* columns rows colors chars-per-pixel */
"32 32 119 2 ",
"   c #182642",
".  c #1B2945",
"X  c #202E4B",
"o  c #24324E",
"O  c #253351",
"+  c #293753",
"@  c #2C3A55",
"#  c #2E3C59",
"$  c #313E5B",
"%  c #34425D",
"&  c #364461",
"*  c #394763",
"=  c #3C4A65",
"-  c #3E4C69",
";  c #404E6B",
":  c #44526D",
">  c #465471",
",  c #495773",
"<  c #4C5A76",
"1  c #4E5C79",
"2  c #505E7B",
"3  c #53617D",
"4  c #566481",
"5  c #596783",
"6  c #5B6985",
"7  c #5E6C89",
"8  c #606E8B",
"9  c #64728D",
"0  c #667490",
"q  c #687692",
"w  c #6C7A96",
"e  c #6E7C99",
"r  c #717E9B",
"t  c #74829E",
"y  c #7684A1",
"u  c #7987A3",
"i  c #7B89A5",
"p  c #7F8CA9",
"a  c #818EAA",
"s  c #8391AD",
"d  c #8795B1",
"f  c #8997B2",
"g  c #8C9AB5",
"h  c #8E9CB9",
"j  c #919FBC",
"k  c #919FBA",
"l  c #92A0BB",
"z  c #93A1BC",
"x  c #92A0BD",
"c  c #94A2BD",
"v  c #95A3BE",
"b  c #94A2BF",
"n  c #96A4BF",
"m  c #93A1BD",
"M  c #97A5C0",
"N  c #96A4C1",
"B  c #97A5C2",
"V  c #96A4C0",
"C  c #98A6C1",
"Z  c #99A7C2",
"A  c #98A6C3",
"S  c #99A7C4",
"D  c #99A7C3",
"F  c #9AA8C3",
"G  c #9BA9C4",
"H  c #9AA8C5",
"J  c #9BA9C6",
"K  c #9CAAC5",
"L  c #9DABC6",
"P  c #9CAAC7",
"I  c #9EACC7",
"U  c #9BA9C5",
"Y  c #9DABC8",
"T  c #9FADC8",
"R  c #9EACC9",
"E  c #9FADCA",
"W  c #9EACC9",
"Q  c #A0AEC9",
"!  c #A1AFCA",
"~  c #A0AECB",
"^  c #A1AFCA",
"/  c #A2B0CB",
"(  c #A3B1CC",
")  c #A2B0CD",
"_  c #A3B1CE",
"`  c #A5B3CE",
"'  c #A4B2CF",
"]  c #A6B4CF",
"[  c #A4B2CD",
"{  c #A5B3D0",
"}  c #A7B5D0",
"|  c #A6B4D1",
" . c #A7B5D2",
".. c #A7B5D0",
"X. c #A8B6D1",
"o. c #A8B6D3",
"O. c #A9B6D4",
"+. c #AAB8D3",
"@. c #ABB9D4",
"#. c #ABB9D6",
"$. c #ADBBD6",
"%. c #ACBAD7",
"&. c #AEBCD7",
"*. c #ACBAD5",
"=. c #ADBBD8",
"-. c #AFBDD8",
";. c #AEBCD9",
":. c #AFBDDA",
">. c #B0BED9",
",. c #B1BFDA",
"<. c #B0BEDB",
"1. c #B1BFDC",
"2. c #B0BEDA",
"3. c #B2C0DB",
"4. c #B3C1DE",
"5. c #B3C1DC",
"6. c #B5C3E0",
"7. c #B6C4E1",
"8. c #B5C3E0",
/* pixels */
". ; 6 @ , l l a - 6 0 = w O.p $   - 7 # : l l a % 8 9 = w =.i & ",
": F 3.3 % 3 e : < J ' r g Y h 4 - P %.5 % 3 w : , ] ] t g ' g 4 ",
"1 h G 9 % : 3 ; - p w $ < 4 , $ < h A 0 % : 3 - , t q * < > < = ",
": q e 6 3 X.3.Q 4 = r i u 4 $ . - 0 e 6 3 @.3.( , ; t t i 6 % . ",
"@ : 2 % ; c n c r q %.%.8.B < # # > 1 % : n n v r 9 <.<.4.B 4 O ",
"% % o + % ; 9 t 1 7 B p p s 1 # * + o @ % ; 9 t 4 7 j d g i , # ",
"v 3 % t ^ n l 3 # * 7 7 0 < * p F 3 % t ( n v 6 # * 0 8 8 , - u ",
"..9 3 @.( I $.^ = O > > > = # h  .9 3 ] ] K 3.K - O - > , & & h ",
"a 3 < a l f f / 3 = f L h 7 & y p 9 - p g g p ~ 4 - p E N 7 - r ",
"3 : = a f g g g < t 3.Q ;.b - < 6 - = i g g N g > r 1.) O.j = 4 ",
"% . % 3 f g g f 3 < s a i e @ # % . + 7 g g g g 5 1 u y u r + + ",
"t q q = 3 s f a < = 3 : 6 3 * 5 t t 9 = 2 d d y > - 4 4 4 4 = 5 ",
"3.3.( t % 3 q < % = 3 3 3 % < &.3.3.] q * 5 w < @ - 4 4 4 @ 4 O.",
"f g z ` 3 * = % : F 5.` a ; < s d g v ] 9 $ - & 4 B 1.J p - 4 p ",
"a a a a w : : + 3 ^ n z n 3 % 6 i s t d 7 - - @ 4 B B j j 4 # 6 ",
"= * % = < ^ 3.t = 3 q 3 3 = % % : % - % 4 P 4.r & 6 8 7 4 = # & ",
"  ; 3 % : n n s - 4 7 - 0 ' y #   - 3 % , v C s - 3 6 - 9 ( t % ",
": Q &.3 % 4 w : 4 | O.r g ' j 4 : Q 3.3 % 3 q - < ` 3.t g ( n 3 ",
"3 l n q # : 4 = - r 0 & , , 4 # < z n w % : 3 - : t 9 % : 3 < % ",
"; 9 e 5 3 +.;.E 4 - r r p 6 $ . - 9 t 6 3 +.3.] < - t t p 3 % . ",
"@ : 3 % > N N b r 0 :.:.1.J 4 O % - 1 % , l n l t q *.4.3.I 3 o ",
"% @ o @ & - 0 e 4 6 b p d u > # * @ X @ % : 9 t 2 7 M p g t , % ",
"n 3 % t ~ A b 6 # - 0 7 8 4 - i F 3 % t ^ n n 8 @ - 0 8 7 1 : t ",
"^ 9 3 ] ' J %.P - O - > < & # N +.8 3 ( ..n 3.n - o - : < % % z ",
"a 3 : s g g s ( < : d B N 6 & r p 9 - p h h p _ 1 - d S N 6 & t ",
"3 < = a g g z f 1 e :._ O.x > < 6 : = p d g x d 1 t 3.' O.N - < ",
"=   % 3 f l f g 1 4 a i p w o $ & . + 7 d h g g 1 4 p u p e O & ",
"t t 3 : 2 a f a < ; 2 < 4 4 = 5 t q 8 * 4 d d r < - 1 1 4 4 - 6 ",
"3.$.$.q % 3 t 3 + ; 4 4 1 @ 3 @.4.,.` q & 7 e 4 O - 4 4 4 O 4 O.",
"f l g Q 3 = : % - R 6.H g ; : s f g c ( 0 $ - $ > W 8.J d - > p ",
"a a a a 3 , ; + 9 S l g l < % 9 t s i a 7 - > O 8 J j d j , & 7 ",
": * , = 3 Z 3.t $ 9 e w 8 = # % , % , % 4 P 4.r & 8 e e 8 - # & "
};
