/* XPM */
static char *result[] = {
/* columns rows colors chars-per-pixel */
"32 32 132 2 ",
"   c black",
".  c #110807",
"X  c #140B09",
"o  c #1D120C",
"O  c #1F130D",
"+  c #1F1716",
"@  c #22140E",
"#  c #341D15",
"$  c #391E1A",
"%  c gray15",
"&  c #262727",
"*  c #29292A",
"=  c #292A2A",
"-  c #2A2B2B",
";  c #2D2B2B",
":  c #2D2D2D",
">  c #2D2F2F",
",  c #2D302F",
"<  c #303031",
"1  c #303131",
"2  c #323232",
"3  c #323434",
"4  c #323534",
"5  c #323535",
"6  c #553323",
"7  c #5C3328",
"8  c #6B3A2D",
"9  c #6C3B2E",
"0  c #6C412D",
"q  c #6D412D",
"w  c #734530",
"e  c #504E4E",
"r  c #504F4F",
"t  c #594F50",
"y  c #575050",
"u  c #595051",
"i  c #595A5A",
"p  c #634A45",
"a  c #7E5C56",
"s  c #7F5E58",
"d  c #7F5E59",
"f  c #7F5F59",
"g  c #7C7C7C",
"h  c #7D7F7F",
"j  c #CC2939",
"k  c #CD2D3D",
"l  c #CE2D3D",
"z  c #CE2F3F",
"x  c #834C35",
"c  c #814C36",
"v  c #834C36",
"b  c #93593D",
"n  c #94593D",
"m  c #955A3D",
"M  c #965A3E",
"N  c #CF3444",
"B  c #D33E4C",
"V  c #865441",
"C  c #845C52",
"Z  c #896056",
"A  c #896F6B",
"S  c #89716D",
"D  c #D54452",
"F  c #D54653",
"G  c #D54D5B",
"H  c #D5515E",
"J  c #D15460",
"K  c #D25763",
"L  c #D25864",
"P  c #D25C68",
"I  c #D55F6B",
"U  c #D95E6B",
"Y  c #D9606C",
"T  c #C56872",
"R  c #C66B75",
"E  c #D86D77",
"W  c #DA707A",
"Q  c #DD7982",
"!  c #DC7983",
"~  c #DA7F89",
"^  c #DC7F88",
"/  c #7D8080",
"(  c #818383",
")  c #908887",
"_  c #968E8D",
"`  c #979190",
"'  c #9B9493",
"]  c #9F9F9F",
"[  c #AD8E92",
"{  c #AD9093",
"}  c #AD9193",
"|  c #AE9799",
" . c #AF989A",
".. c #B19C97",
"X. c #A0A0A0",
"o. c #A0A1A0",
"O. c #A0A3A3",
"+. c #A1A4A4",
"@. c #A1A5A5",
"#. c #A2A5A5",
"$. c #BBB1AF",
"%. c #B5B6B6",
"&. c #BBB3B1",
"*. c #BBB4B2",
"=. c #BCB4B2",
"-. c #B6B8B8",
";. c #CD838A",
":. c #D9B2B6",
">. c #D8B3B7",
",. c #DAB2B6",
"<. c #DAB3B7",
"1. c #DBB4B8",
"2. c #DCB6BA",
"3. c #DBBABD",
"4. c #DCBBBE",
"5. c #EAA3AA",
"6. c #DABEC1",
"7. c #DDBEC1",
"8. c #DEBFC2",
"9. c #DEC1C4",
"0. c #F5CFD3",
"q. c #EFD2D5",
"w. c #E2DADB",
"e. c #E3DBDC",
"r. c #F5D1D4",
"t. c #F0D4D7",
"y. c #E3E7E6",
"u. c #E7EAEA",
"i. c #E9ECEB",
"p. c #FBFFFF",
"a. c #FCFFFF",
"s. c None",
/* pixels */
"s.s.s.s.s.s.s.s.s.s.s.s.s.s.s.s.s.s.s.s.s.s.s.s.s.s.s.s.s.s.s.s.",
"s.s.s.s.s.s.s.s.s.s.s.s.s.s.s.s.s.s.s.s.s.s.s.s.s.s.s.s.s.s.s.s.",
"s.s.s.s.s.s.s.s.s.s.s.s.s.s.s.s.s.s.s.s.s.s.s.s.s.s.s.s.s.s.s.s.",
"s.s.s.s.s.s.s.s.s.s.s.s.s.s.s.s.s.s.s.s.s.s.s.s.s.s.s.s.s.s.s.s.",
"s.s.s.s.s.s.s.s.s.s.s.s.            s.s.s.s.s.s.s.s.s.s.s.s.s.s.",
"s.s.s.s.s.s.s.s.s.s.s.s.O @ @ @ @ O s.s.s.s.s.s.s.s.s.s.s.s.s.s.",
"s.s.s.s.s.s.s.s.s.s.  o 6 q 0 0 q 6 o   s.s.s.s.s.s.s.s.s.s.s.s.",
"s.s.s.s.s.s.s.s.s.s.. # w M m m M w # . s.s.s.s.s.s.s.s.s.s.s.s.",
"s.s.s.s.s.s.s.s.  X $ 7 c n b b n c 7 $ X   s.s.s.s.s.s.s.s.s.s.",
"s.s.s.s.s.s.s.s.  + p Z V x v v x V Z p +   s.s.s.s.s.s.s.s.s.s.",
"s.s.s.s.s.s.s.s.  ; ) ..C 8 9 9 8 C ..) ;   s.s.s.s.s.s.s.s.s.s.",
"s.s.s.s.s.s.s.s.  1 ( ' A a d f s S ' ( <   s.s.s.s.s.s.s.s.s.s.",
"s.s.s.s.s.s.s.s.s.s.= e _ $.&.*.=.` r * s.s.s.s.s.s.s.s.s.s.s.s.",
"s.s.s.s.s.s.s.s.s.s.% i %.w.6.>.3.| y & s.s.s.s.s.s.s.s.s.s.s.s.",
"s.s.s.s.s.s.s.s.  : g -.y.q.~ P E ;. .h >   s.s.s.s.s.s.s.s.s.s.",
"s.s.s.s.s.s.s.s.  2 X.i.a.0.U l D Q 8.+.3   s.s.s.s.s.s.s.s.s.s.",
"s.s.s.s.s.s.s.s.  2 ] u.p.r.Y z F ! 7.O.3   s.s.s.s.s.s.s.s.s.s.",
"s.s.s.s.s.s.s.s.  2 o.e.t.5.H k B W 4.O.3   s.s.s.s.s.s.s.s.s.s.",
"s.s.s.s.s.s.s.s.  3 +.9.^ G N j l I 2.@.4   s.s.s.s.s.s.s.s.s.s.",
"s.s.s.s.s.s.s.s.  , / { T J K L K R } / ,   s.s.s.s.s.s.s.s.s.s.",
"s.s.s.s.s.s.s.s.s.s.- t [ ,.:.<.1.{ u - s.s.s.s.s.s.s.s.s.s.s.s.",
"s.s.s.s.s.s.s.s.s.s.  - / #.+.+.#./ -   s.s.s.s.s.s.s.s.s.s.s.s.",
"s.s.s.s.s.s.s.s.s.s.s.s., 5 4 4 5 , s.s.s.s.s.s.s.s.s.s.s.s.s.s.",
"s.s.s.s.s.s.s.s.s.s.s.s.            s.s.s.s.s.s.s.s.s.s.s.s.s.s.",
"s.s.s.s.s.s.s.s.s.s.s.s.s.s.s.s.s.s.s.s.s.s.s.s.s.s.s.s.s.s.s.s.",
"s.s.s.s.s.s.s.s.s.s.s.s.s.s.s.s.s.s.s.s.s.s.s.s.s.s.s.s.s.s.s.s.",
"s.s.s.s.s.s.s.s.s.s.s.s.s.s.s.s.s.s.s.s.s.s.s.s.s.s.s.s.s.s.s.s.",
"s.s.s.s.s.s.s.s.s.s.s.s.s.s.s.s.s.s.s.s.s.s.s.s.s.s.s.s.s.s.s.s.",
"s.s.s.s.s.s.s.s.s.s.s.s.s.s.s.s.s.s.s.s.s.s.s.s.s.s.s.s.s.s.s.s.",
"s.s.s.s.s.s.s.s.s.s.s.s.s.s.s.s.s.s.s.s.s.s.s.s.s.s.s.s.s.s.s.s.",
"s.s.s.s.s.s.s.s.s.s.s.s.s.s.s.s.s.s.s.s.s.s.s.s.s.s.s.s.s.s.s.s.",
"s.s.s.s.s.s.s.s.s.s.s.s.s.s.s.s.s.s.s.s.s.s.s.s.s.s.s.s.s.s.s.s."
};
