/* XPM */
static char *result[] = {
/* columns rows colors chars-per-pixel */
"18 32 182 2 ",
"   c #0A0A20",
".  c #100E22",
"X  c #100F22",
"o  c #131023",
"O  c #171323",
"+  c #161324",
"@  c #171527",
"#  c #181424",
"$  c #181425",
"%  c #181527",
"&  c #11132B",
"*  c #15162C",
"=  c #16172D",
"-  c #191628",
";  c #1F1928",
":  c #19182C",
">  c #1A1A2F",
",  c #1C1A2D",
"<  c #221F31",
"1  c #1F2036",
"2  c #1D2138",
"3  c #1F2138",
"4  c #1F243D",
"5  c #29202C",
"6  c #2E242E",
"7  c #2F252E",
"8  c #30252E",
"9  c #33272E",
"0  c #212238",
"q  c #212339",
"w  c #27243A",
"e  c #21243C",
"r  c #20243D",
"t  c #23263E",
"y  c #22263F",
"u  c #24263C",
"i  c #24273F",
"p  c #282439",
"a  c #292439",
"s  c #362930",
"d  c #3A2C32",
"f  c #3B2D32",
"g  c #3C2E33",
"h  c #332D39",
"j  c #3F3034",
"k  c #3F3035",
"l  c #4D3A39",
"z  c #5C453F",
"x  c #1A2341",
"c  c #1B2442",
"v  c #1B2543",
"b  c #1E2642",
"n  c #252942",
"m  c #252A42",
"M  c #252A43",
"N  c #262A43",
"B  c #252B44",
"V  c #262B44",
"C  c #262B45",
"Z  c #262C45",
"A  c #272C45",
"S  c #272C46",
"D  c #2A2D45",
"F  c #2B2E45",
"G  c #282D47",
"H  c #2C2F45",
"J  c #252E48",
"K  c #252E49",
"L  c #3B526E",
"P  c #5F4944",
"I  c #6B4F44",
"U  c #6F5245",
"Y  c #755648",
"T  c #79564E",
"R  c #7F5E4C",
"E  c #654E51",
"W  c #7F6257",
"Q  c #84614D",
"!  c #85624D",
"~  c #86624D",
"^  c #8F6952",
"/  c #83685B",
"(  c #906A52",
")  c #946C53",
"_  c #936C54",
"`  c #946D54",
"'  c #976F55",
"]  c #986B5B",
"[  c #997056",
"{  c #9A7156",
"}  c #9E7458",
"|  c #AF765F",
" . c #AC7E5D",
".. c #BB7856",
"X. c #B87A5F",
"o. c #AF805E",
"O. c #B0815E",
"+. c #B2835F",
"@. c #B78661",
"#. c #BD8A63",
"$. c #CC8157",
"%. c #C98359",
"&. c #CF8358",
"*. c #C38162",
"=. c #C08C65",
"-. c #C38E65",
";. c #C78E66",
":. c #D28F62",
">. c #C69167",
",. c #C79167",
"<. c #C99368",
"1. c #CB9469",
"2. c #CF976A",
"3. c #CE986D",
"4. c #D3936A",
"5. c #D0986B",
"6. c #D2996B",
"7. c #D49A6C",
"8. c #D69C6D",
"9. c #D79C6D",
"0. c #DC9C6B",
"q. c #DA9F6E",
"w. c #DD9D6C",
"e. c #DF9D6C",
"r. c #DCA06F",
"t. c #DDA16F",
"y. c #DFA370",
"u. c #E3A36D",
"i. c #E1A26F",
"p. c #E4A36D",
"a. c #E7A56E",
"s. c #E8A76F",
"d. c #E1A371",
"f. c #E4A571",
"g. c #E4A671",
"h. c #E5A671",
"j. c #E4A672",
"k. c #E5A672",
"l. c #E5A772",
"z. c #E3A776",
"x. c #E7A871",
"c. c #E6A873",
"v. c #E7A873",
"b. c #E7A974",
"n. c #E8AA74",
"m. c #EBAB75",
"M. c #EDAC75",
"N. c #EFAE76",
"B. c #E6AC7B",
"V. c #E6AC7C",
"C. c #E6AD7C",
"Z. c #E6AD7D",
"A. c #13598D",
"S. c #075B96",
"D. c #0B5B93",
"F. c #0A5B94",
"G. c #517490",
"H. c #768C9F",
"J. c #0E83C8",
"K. c #0086D4",
"L. c #0086D5",
"P. c #0087D9",
"I. c #36ADF1",
"U. c #35AEF2",
"Y. c #31B0F7",
"T. c #41A8E3",
"R. c #AFA5A5",
"E. c #E4AF8A",
"W. c #D9B3A0",
"Q. c #F5CDAD",
"!. c #F9D3B4",
"~. c #F9D4B5",
"^. c #FBD6B7",
"/. c #AAD5EF",
"(. c #A8DFFE",
"). c #A8E0FF",
"_. c #A8E3FF",
"`. c #F3E8E1",
"'. c #F8F3EF",
"]. c #F8F4F0",
"[. c #FAF8F4",
"{. c None",
/* pixels */
"{.{.V V V V V V V V V V V V V V {.{.",
"{.{.V V V V V V V V V V V V V V {.{.",
"S A C V V V V V V V V V V V V C A S ",
"n m N V V V V V V V V V V V V N m n ",
"1 0 i V Z V V V V V V V V Z V i 0 1 ",
"- , q M Z V V V V V V V V Z M q , - ",
"O % > 2 y B A Z Z Z Z A B y 2 > % O ",
"# $ @ : 3 m S Z C C Z S m 3 : @ $ # ",
"+ ; 9 k h u 4 r e e r 4 u h k 9 ; + ",
"o 8 U ( P < & * = = * & < P ( U 8 o ",
"X f ' 1.^ j 5 6 7 7 6 5 j ^ 1.' f X ",
". g { r.-.) ~ ! Q Q ! ~ ) -.r.{ g . ",
"X d ` r.y.2.2.7.8.8.7.2.2.y.r.` d X ",
"  s _ 9.=.} +.r.N.N.r.+.} =.9._ s   ",
". f [ 2.( l Y ,.M.M.,.Y l ( 2.[ f . ",
"l I o.6.' z R <.m.m.<.R z ' 6.o.I l ",
" .@.5.t.>.O.#.q.v.v.q.#.O.>.t.5.@. .",
"l.l.k.j.j.h.g.f.f.f.f.g.h.j.j.k.l.l.",
"{.{.n.c.x.s.a.p.u.u.p.a.s.x.c.n.{.{.",
"{.{.i.d.z.B.Z.C.V.V.C.Z.B.z.d.i.{.{.",
"{.w.:.4.E.Q.^.~.!.!.~.^.Q.E.4.:.w.{.",
"c.0.%.*.W.`.[.].'.'.].[.`.W.*.%.0.c.",
"n.e.$.X.R./._.).(.(.)._./.R.X.$.e.n.",
"b.e.&.| H.T.Y.U.I.I.U.Y.T.H.| &.e.b.",
"3.;...] G.J.P.L.K.K.L.P.J.G.] ..;.3.",
"/ W T E L A.S.F.D.D.F.S.A.L E T W / ",
"H F F D G J K K K K K K J G D F F H ",
"x c v b t w a a p p a a w t b v c x ",
"V V V V V V V V V V V V V V V V V V ",
"{.{.{.V V V V V V V V V V V V {.{.{.",
"{.{.{.V V V V V V V V V V V V {.{.{.",
"{.{.{.V V V V V V V V V V V V {.{.{."
};
