/* XPM */
static char *_e09e0c19a6c4dd5ccd5d00740d02b35yiwcpQDzLZFIsnWo[] = {
/* columns rows colors chars-per-pixel */
"19 32 155 2 ",
"   c None",
".  c #080A1F",
"X  c #0E0D21",
"o  c #110F23",
"O  c #151224",
"+  c #181425",
"@  c #171528",
"#  c #1A1729",
"$  c #1B192C",
"%  c #1A1C32",
"&  c #151932",
"*  c #201927",
"=  c #221C2B",
"-  c #281F2B",
";  c #1F2035",
":  c #1D233C",
">  c #16243C",
",  c #2B222D",
"<  c #32232C",
"1  c #38262D",
"2  c #33282F",
"3  c #222236",
"4  c #2C2534",
"5  c #23263D",
"6  c #282338",
"7  c #342830",
"8  c #392A30",
"9  c #4D3A39",
"0  c #463536",
"q  c #583C39",
"w  c #523434",
"e  c #5B443E",
"r  c #56413D",
"t  c #6A423B",
"y  c #1B2643",
"u  c #182D4B",
"i  c #1E3B5E",
"p  c #11355E",
"a  c #262B44",
"s  c #3F3746",
"d  c #3E3946",
"f  c #353143",
"g  c #403746",
"h  c #423947",
"j  c #4F3F40",
"k  c #473F4B",
"l  c #204166",
"z  c #2B5679",
"x  c #474B5A",
"c  c #694E43",
"v  c #6E5145",
"b  c #735547",
"n  c #7B584C",
"m  c #705959",
"M  c #6E737D",
"N  c #86503F",
"B  c #885846",
"V  c #835E4C",
"C  c #8C5A4B",
"Z  c #935B48",
"A  c #84624E",
"S  c #9C624B",
"D  c #8B6650",
"F  c #926150",
"G  c #9B6E54",
"H  c #966E55",
"J  c #9C7357",
"K  c #AC684C",
"L  c #B66C4D",
"P  c #BB6E4D",
"I  c #B26445",
"U  c #BA704F",
"Y  c #B46D50",
"T  c #B86F50",
"R  c #A77A5B",
"E  c #AB7D5D",
"W  c #A6765C",
"Q  c #BC7352",
"!  c #BF7956",
"~  c #977465",
"^  c #B17E6A",
"/  c #C27955",
"(  c #B1815F",
")  c #BE825D",
"_  c #B98762",
"`  c #BD8A63",
"'  c #B98169",
"]  c #D48C5F",
"[  c #C68968",
"{  c #D28C61",
"}  c #C79167",
"|  c #C89267",
" . c #CB9469",
".. c #D69163",
"X. c #DC9462",
"o. c #D0976A",
"O. c #D39A6C",
"+. c #D99E6E",
"@. c #C79873",
"#. c #CB937D",
"$. c #D79E7C",
"%. c #DDA06F",
"&. c #DEA270",
"*. c #DBA77C",
"=. c #E4A46E",
"-. c #E5A671",
";. c #E7A873",
":. c #E8A974",
">. c #034A83",
",. c #035891",
"<. c #225B90",
"1. c #0063A5",
"2. c #016BAF",
"3. c #006FB4",
"4. c #0074BC",
"5. c #1175BB",
"6. c #4B87AD",
"7. c #6C93B8",
"8. c #0D99E8",
"9. c #1396E1",
"0. c #1299E6",
"q. c #119CEA",
"w. c #6BACDA",
"e. c #77C6F3",
"r. c #79C9F7",
"t. c #77CEFE",
"y. c #7ACBF9",
"u. c #94868D",
"i. c #9E9897",
"p. c #92ABBC",
"a. c #E7B082",
"s. c #E6B38A",
"d. c #E9B68B",
"f. c #C0AEAD",
"g. c #C5B6AC",
"h. c #DCC8BE",
"j. c #BFC4CF",
"k. c #B8C5D6",
"l. c #D0C7C4",
"z. c #D9C7C0",
"x. c #C6CFDD",
"c. c #F3D7C0",
"v. c #F2DDCC",
"b. c #F6E0CE",
"n. c #F8E2CF",
"m. c #F5E1D9",
"M. c #CEDEEE",
"N. c #CDD6E4",
"B. c #E1E5ED",
"V. c #E8EEF6",
"C. c #EAF6FC",
"Z. c #ECF9FF",
"A. c #E7F3FB",
"S. c #FFFFFE",
"D. c #FBF5F2",
/* pixels */
"    a a a a a a a a a a a a a         ",
"    a a a a a a a a a a a a a         ",
"a a a a a a a a a a a a a a 5 $       ",
"a a a a a a a a a a a a a a ; # +     ",
"a a a a a a a a a a a a 5 ; # # + + + ",
"a a a a a a a a a 5 a a 3 # + + + + O ",
"; 3 5 a a a a a ; % $ ; # # O + + + + ",
"+ # 5 a a a a a 3 , $ # + O + + + + + ",
"O # $ & % % & 3 r v 9 = O O + + + + + ",
"    $ = $ # # , A ` n , O O + + O + + ",
"    b b v v v n ( %.D , . O O O + + + ",
"     . . . . . .-.%.A , O + + O + + + ",
"    J E o.-.` R | O.A , , r 0 , O + + ",
"    2 r E  .n 9 H o.A , r ( D 1 O O + ",
"    0 c (  .D c J O.J q V | G 8 O O + ",
"    ( ` O.&.| _ o.%.) S K ! B < o     ",
"    :.:.;.-.-.:.-.%.] / K Z t < o     ",
"    :.:.=.=.=.=.-.=.] U N w 1         ",
"    -.:.a.d.d.d.d.a.$.^ n - .         ",
"        c.b.b.b.n.v.h.f.u.            ",
"        D.S.S.S.S.S.B.x.k.            ",
"T L I #.m.S.S.S.S.S.V.N.l.s.X./       ",
"T L L [ z.C.Z.Z.Z.A.M.k.g.a...! L     ",
"T P P ^ p.r.t.r.r.e.w.7.i.*.X./ T     ",
"Y P P ~ 6.9.8.0.q.9.5.<.M @...Q L     ",
"C C Z m z ,.1.3.4.2.>.p x ~ W F C     ",
"s h h f : y u i l i y % 3 d k h       ",
"y y y : $ # = 6   6 = # $ > y y       ",
"a a a a 5 5 a a a a a 5 5 a a a       ",
"      a a a a a a a a a a a           ",
"      a a a a a a a a a a a           ",
"      a a a a a a a a a a a           "
};
