/* XPM */
static char *_256c123ce3545899809f30d56e442e9Rw14jpLzTtdA6heT[] = {
/* columns rows colors chars-per-pixel */
"18 32 133 2 ",
"   c None",
".  c #0D0C21",
"X  c #121023",
"o  c #131023",
"O  c #171323",
"+  c #141124",
"@  c #161224",
"#  c #161324",
"$  c #171324",
"%  c #171325",
"&  c #171425",
"*  c #181324",
"=  c #181424",
"-  c #181425",
";  c #181426",
":  c #191527",
">  c #191627",
",  c #191628",
"<  c #1A182A",
"1  c #1C1A2D",
"2  c #1C1A2E",
"3  c #1C1B2E",
"4  c #1D1C2F",
"5  c #1D1C30",
"6  c #1D1D31",
"7  c #1F2036",
"8  c #2D232D",
"9  c #34282F",
"0  c #212238",
"q  c #212339",
"w  c #21243A",
"e  c #22253B",
"r  c #27243A",
"t  c #23263D",
"y  c #23263E",
"u  c #23273E",
"i  c #24273F",
"p  c #282439",
"a  c #292439",
"s  c #382B30",
"d  c #3D2F33",
"f  c #483637",
"g  c #513D3B",
"h  c #543F3C",
"j  c #1A2341",
"k  c #1B2442",
"l  c #1B2543",
"z  c #1E2642",
"x  c #242840",
"c  c #252942",
"v  c #252A42",
"b  c #252A43",
"n  c #262A43",
"m  c #262B44",
"M  c #262B45",
"N  c #262C45",
"B  c #272C45",
"V  c #272C46",
"C  c #2A2D45",
"Z  c #2B2E45",
"A  c #282D47",
"S  c #2C2F45",
"D  c #252E48",
"F  c #252E49",
"G  c #3B526E",
"H  c #765749",
"J  c #79564E",
"K  c #654E51",
"L  c #7F6257",
"P  c #92684E",
"I  c #92694E",
"U  c #92694F",
"Y  c #83685B",
"T  c #926A51",
"R  c #956D54",
"E  c #956E54",
"W  c #986B5B",
"Q  c #AF765F",
"!  c #A77B5C",
"~  c #BB7856",
"^  c #B87A5F",
"/  c #B48460",
"(  c #CC8157",
")  c #CA8359",
"_  c #CF8358",
"`  c #C48262",
"'  c #C48F66",
"]  c #C78E66",
"[  c #CE986D",
"{  c #D89364",
"}  c #DC9C6B",
"|  c #DB986C",
" . c #D99C6C",
".. c #D99D6E",
"X. c #DF9D6C",
"o. c #DF9F6D",
"O. c #DBA173",
"+. c #DDA678",
"@. c #DEA779",
"#. c #DEA77A",
"$. c #E6A873",
"%. c #E7A974",
"&. c #E8AA74",
"*. c #EDAC75",
"=. c #13598D",
"-. c #075B96",
";. c #0B5B93",
":. c #0A5B94",
">. c #517490",
",. c #768C9F",
"<. c #0E83C8",
"1. c #0086D4",
"2. c #0086D5",
"3. c #0087D9",
"4. c #36ADF1",
"5. c #35AEF2",
"6. c #31B0F7",
"7. c #41A8E3",
"8. c #AFA5A5",
"9. c #EBB48D",
"0. c #DAB3A0",
"q. c #FDD2B0",
"w. c #FFD8B7",
"e. c #FFD9B8",
"r. c #FFDBBA",
"t. c #AAD5EF",
"y. c #A8DFFE",
"u. c #A8E0FF",
"i. c #A8E3FF",
"p. c #F3E9E2",
"a. c #F9F4EF",
"s. c #F9F5F0",
"d. c #FBF8F5",
/* pixels */
"    m m m m m m m m m m m m m m     ",
"    m m m m m m m m m m m m m b     ",
"V V V m m m m m m m m m m m m V V V ",
"c c c m m m m m m m m m m m m m c c ",
"7 0 u m V m m m m m m m n V n x 0 7 ",
"> 1 w m V m m m m b m m V n n q 4 > ",
"O > 6 w u m m V V N V V n x q 6 > O ",
"& & > 1 0 m V m b V m V V 7 3 > & = ",
"> O O > 6 t t t t t t t w 6 , O > O ",
"O > * * , 1 6 4 6 3 6 6 4 , > * O > ",
"* % * > * > > * * * * > > O > * * > ",
"> > * % * * O * * * * O * * O % * % ",
"% * % % * > > O > % * > % * & > > * ",
"o o O > * % % % > * % > % > % O X X ",
"% & & & > * > % % % * % * % % & % % ",
"h f 8 O X o o O O X % X O X % 8 f h ",
"/ E g & . o o o X X X X X . % h R / ",
"*.' H d 9 s s s s s s s s 9 d H ' *.",
"    ! T T P P P P P T P P T R !     ",
"    ....O.@.@.@.@.@.+.+.+.O... .    ",
"  o.{  .9.q.r.e.w.w.e.r.q.9.| { o.  ",
"%.} ) ` 0.p.d.s.a.a.s.d.p.0.` ) } $.",
"&.X.( ^ 8.t.u.y.y.y.u.i.t.8.^ ) o.&.",
"&.X._ Q ,.7.6.5.5.5.5.6.7.,.Q _ } &.",
"[ ' ~ W >.<.3.3.1.1.1.3.<.>.W ~ ] [ ",
"Y Y J K G =.:.:.;.;.:.-.=.G K J Y Y ",
"C A A A A D D F D D D D D A Z Z C C ",
"6 l z z x r a r p r p r r t z l l 7 ",
"c V n V n n n D m m m m V n V n n V ",
"      n n n n n m m m m n V n       ",
"      V n V n V m m b V V n V       ",
"      n V n V n m b V V x V n       "
};
